<svg xmlns="http://www.w3.org/2000/svg" viewBox="0 0 120 120" width="120" height="120" fill="none">
  <ellipse cx="40" cy="56" rx="20" ry="16" stroke="#94a3b8" stroke-width="1.5"/>
  <ellipse cx="80" cy="56" rx="20" ry="16" stroke="#94a3b8" stroke-width="1.5"/>
  <path d="M60 52 C62 48, 58 48, 60 52" stroke="#94a3b8" stroke-width="1.5" fill="none"/>
  <path d="M60 52 L60 50" stroke="#94a3b8" stroke-width="1.5"/>
  <line x1="54" y1="62" x2="52" y2="68" stroke="#94a3b8" stroke-width="1"/>
  <line x1="66" y1="62" x2="68" y2="68" stroke="#94a3b8" stroke-width="1"/>
  <ellipse cx="51" cy="70" rx="2.5" ry="1.5" fill="#cbd5e1" stroke="#94a3b8" stroke-width="0.5"/>
  <ellipse cx="69" cy="70" rx="2.5" ry="1.5" fill="#cbd5e1" stroke="#94a3b8" stroke-width="0.5"/>
  <path d="M20 52 L10 50 Q6 50 4 56" stroke="#94a3b8" stroke-width="1.5" fill="none" stroke-linecap="round"/>
  <path d="M100 52 L110 50 Q114 50 116 56" stroke="#94a3b8" stroke-width="1.5" fill="none" stroke-linecap="round"/>
  <path d="M4 56 Q2 62 4 66" stroke="#94a3b8" stroke-width="1.2" fill="none" stroke-linecap="round"/>
  <path d="M116 56 Q118 62 116 66" stroke="#94a3b8" stroke-width="1.2" fill="none" stroke-linecap="round"/>
</svg>
